
<svg xmlns="http://www.w3.org/2000/svg" 
viewBox="0 0 620 671"
 xmlns:xlink="http://www.w3.org/1999/xlink">
 <defs>
  <style type="text/css">
   <![CDATA[
    .str0 {stroke:#FEFEFE;stroke-width:1.38468}
    .str1 {stroke:#FEFEFE;stroke-width:0.598145}
    .fil1 {fill:#DADBDB;fill-rule:nonzero}
    .fil0 {fill:#E73B35;fill-rule:nonzero}
   ]]>
  </style>
 </defs>
 <g id="РЎР_x00bb_РѕР_x2116__x0020_1">
  <metadata id="CorelCorpID_0Corel-Layer"/>
  <g id="_793103280">
   <path class="fil0 str0" d="M1 335c0,185 138,335 309,335 171,0 310,-150 310,-335 0,-184 -139,-334 -310,-334 -171,0 -309,150 -309,334z"/>
   <g>
    <path class="fil1 str1" d="M310 586c-131,0 -239,-107 -239,-239 0,-64 25,-124 70,-169 14,-13 35,-13 48,0 13,13 13,35 0,48 -32,32 -50,75 -50,121 0,94 77,171 171,171 95,0 171,-77 171,-171 0,-46 -18,-90 -51,-122 -13,-13 -13,-35 0,-48 13,-13 34,-14 47,0 46,45 72,105 72,170 0,132 -107,239 -239,239z"/>
    <path class="fil1 str1" d="M310 379c-18,0 -34,-15 -34,-34l0 -244c0,-18 16,-33 34,-33 19,0 34,15 34,33l0 244c0,19 -15,34 -34,34z"/>
   </g>
  </g>
 </g>
</svg>
