
<svg xmlns="http://www.w3.org/2000/svg" 
viewBox="0 0 628 679"
 xmlns:xlink="http://www.w3.org/1999/xlink">
 <defs>
  <style type="text/css">
   <![CDATA[
    .str0 {stroke:#FEFEFE;stroke-width:1.42276}
    .fil0 {fill:#2B2A29;fill-rule:nonzero}
    .fil1 {fill:#D0D2D3;fill-rule:nonzero}
   ]]>
  </style>
 </defs>
 <g id="РЎР_x00bb_РѕР_x2116__x0020_1">
  <metadata id="CorelCorpID_0Corel-Layer"/>
  <g id="_800017680">
   <path class="fil0 str0" d="M1 339c0,187 140,339 313,339 173,0 313,-152 313,-339 0,-187 -140,-338 -313,-338 -173,0 -313,151 -313,338z"/>
   <g>
    <path class="fil1" d="M127 495c-6,0 -11,-3 -15,-8 -8,-9 -6,-21 2,-29l192 -155c8,-6 19,-6 26,0l182 156c8,7 9,20 2,29 -7,8 -20,9 -29,2l-168 -145 -179 145c-4,3 -8,5 -13,5z"/>
    <path class="fil1" d="M127 403c-6,0 -11,-2 -15,-7 -8,-9 -6,-22 2,-29l192 -156c8,-6 19,-6 26,1l182 155c8,8 9,20 2,29 -7,9 -20,10 -29,2l-168 -144 -179 145c-4,3 -8,4 -13,4z"/>
    <path class="fil1" d="M127 306c-6,0 -11,-3 -15,-8 -8,-9 -6,-22 2,-29l192 -155c8,-7 19,-6 26,0l182 156c8,7 9,20 2,28 -7,9 -20,10 -29,3l-168 -145 -179 145c-4,3 -8,5 -13,5z"/>
   </g>
  </g>
 </g>
</svg>
