
<svg xmlns="http://www.w3.org/2000/svg" 
viewBox="0 0 640 692"
 xmlns:xlink="http://www.w3.org/1999/xlink">
 <defs>
  <style type="text/css">
   <![CDATA[
    .str0 {stroke:#FEFEFE;stroke-width:2.1726}
    .fil0 {fill:#2B2A29;fill-rule:nonzero}
    .fil1 {fill:#D0D2D3;fill-rule:nonzero}
   ]]>
  </style>
 </defs>
 <g id="РЎР_x00bb_РѕР_x2116__x0020_1">
  <metadata id="CorelCorpID_0Corel-Layer"/>
  <g id="_800034288">
   <path class="fil0 str0" d="M1 346c0,190 143,345 319,345 176,0 319,-155 319,-345 0,-191 -143,-345 -319,-345 -176,0 -319,154 -319,345z"/>
   <g>
    <path class="fil1" d="M224 182c0,18 -15,33 -32,33 -18,0 -33,-15 -33,-33 0,-17 15,-32 33,-32 17,0 32,15 32,32z"/>
    <path class="fil1" d="M159 283c0,18 -14,33 -32,33 -18,0 -33,-15 -33,-33 0,-18 15,-32 33,-32 18,0 32,14 32,32z"/>
    <path class="fil1" d="M539 283c0,18 -15,33 -33,33 -17,0 -32,-15 -32,-33 0,-18 15,-32 32,-32 18,0 33,14 33,32z"/>
    <path class="fil1" d="M315 450c-48,0 -88,-40 -88,-88 0,-48 40,-88 88,-88 48,0 88,40 88,88 0,48 -40,88 -88,88zm0 -153l0 0c-36,0 -65,29 -65,65 0,36 29,65 65,65 36,0 65,-29 65,-65 0,-36 -29,-65 -65,-65z"/>
    <path class="fil1" d="M151 397c0,17 -14,32 -32,32 -18,0 -33,-15 -33,-32 0,-18 15,-33 33,-33 18,0 32,15 32,33z"/>
    <path class="fil1" d="M536 397c0,17 -15,32 -33,32 -18,0 -32,-15 -32,-32 0,-18 14,-33 32,-33 18,0 33,15 33,33z"/>
    <path class="fil1" d="M483 182c0,18 -15,33 -33,33 -18,0 -32,-15 -32,-33 0,-17 14,-32 32,-32 18,0 33,15 33,32z"/>
    <polygon class="fil1" points="332,278 295,278 295,263 332,263 "/>
    <polygon class="fil1" points="332,459 295,459 295,444 332,444 "/>
    <polygon class="fil1" points="270,288 244,313 233,301 260,277 "/>
    <polygon class="fil1" points="394,420 367,445 357,434 383,409 "/>
    <polygon class="fil1" points="230,344 231,380 216,380 215,344 "/>
    <polygon class="fil1" points="411,342 412,378 397,378 396,342 "/>
    <polygon class="fil1" points="244,409 270,434 260,445 233,420 "/>
    <polygon class="fil1" points="367,277 394,301 383,313 357,288 "/>
    <path class="fil1" d="M318 210c-63,0 -121,45 -145,104l34 0c21,-42 64,-74 111,-74 48,0 93,29 114,73l27 -13c-26,-55 -81,-90 -141,-90z"/>
    <path class="fil1" d="M316 529c64,0 121,-45 145,-104l-33 0c-21,42 -65,73 -112,73 -48,0 -92,-28 -113,-72l-27 13c25,54 80,90 140,90z"/>
    <polygon class="fil1" points="223,421 231,413 168,367 166,484 237,434 "/>
    <polygon class="fil1" points="403,301 423,340 466,371 468,255 "/>
   </g>
  </g>
 </g>
</svg>
