
<svg xmlns="http://www.w3.org/2000/svg" 
viewBox="0 0 688 717"
 xmlns:xlink="http://www.w3.org/1999/xlink">
 <defs>
  <style type="text/css">
   <![CDATA[
    .str0 {stroke:#FEFEFE;stroke-width:1.53576}
    .fil0 {fill:#2B2A29;fill-rule:nonzero}
    .fil1 {fill:#D0D2D3;fill-rule:nonzero}
   ]]>
  </style>
 </defs>
 <g id="РЎР_x00bb_РѕР_x2116__x0020_1">
  <metadata id="CorelCorpID_0Corel-Layer"/>
  <g id="_797602240">
   <path class="fil0 str0" d="M1 359c0,197 153,358 343,358 189,0 343,-161 343,-358 0,-198 -154,-358 -343,-358 -190,0 -343,160 -343,358z"/>
   <g>
    <path class="fil1" d="M550 170c7,0 13,2 17,8 8,9 7,23 -3,31l-207 168c-8,6 -20,6 -28,-1l-196 -168c-9,-8 -10,-22 -2,-31 8,-9 22,-10 31,-2l182 156 192 -157c4,-3 9,-4 14,-4z"/>
    <path class="fil1" d="M550 268c7,0 13,3 17,9 8,9 7,23 -3,31l-207 168c-8,6 -20,6 -28,-1l-196 -168c-9,-8 -10,-22 -2,-31 8,-9 22,-10 31,-2l182 156 192 -157c4,-3 9,-5 14,-5z"/>
    <path class="fil1" d="M550 374c7,0 13,2 17,8 8,9 7,23 -3,31l-207 168c-8,7 -20,6 -28,-1l-196 -168c-9,-7 -10,-21 -2,-31 8,-9 22,-10 31,-2l182 156 192 -156c4,-4 9,-5 14,-5z"/>
   </g>
  </g>
 </g>
</svg>
