
<svg xmlns="http://www.w3.org/2000/svg" 
viewBox="0 0 5858 1361"
 xmlns:xlink="http://www.w3.org/1999/xlink">
 <defs>
  <style type="text/css">
   <![CDATA[
    .fil1 {fill:#B1B1B2;fill-rule:nonzero}
    .fil0 {fill:#979898;fill-rule:nonzero}
    .fil3 {fill:#96C22B;fill-rule:nonzero}
    .fil2 {fill:#3CABE1;fill-rule:nonzero}
   ]]>
  </style>
 </defs>
 <g id="РЎР_x00bb_РѕР_x2116__x0020_1">
  <metadata id="CorelCorpID_0Corel-Layer"/>
  <g id="_800033520">
   <g>
    <g>
     <path class="fil0" d="M1690 966c-31,0 -57,-3 -79,-9 -21,-6 -38,-14 -51,-26 -13,-12 -22,-26 -28,-44 -6,-17 -9,-37 -9,-59l0 -233c0,-22 3,-42 9,-59 6,-18 15,-32 28,-44 13,-12 30,-20 51,-26 22,-6 48,-9 79,-9l454 0 0 100 -455 0c-22,0 -39,3 -49,10 -10,7 -15,18 -15,32l0 225c0,14 5,25 15,32 10,7 27,10 49,10l456 0 0 100 -455 0z"/>
     <polygon class="fil0" points="2220,966 2220,457 2319,457 2319,866 2670,866 2670,966 "/>
     <polygon class="fil0" points="2738,966 2738,457 2837,457 2837,966 "/>
     <path class="fil0" d="M2933 966l0 -468c0,-16 4,-28 14,-36 9,-8 20,-12 33,-12 7,0 15,1 23,4 8,3 15,8 21,14l349 385 349 -385c6,-6 13,-11 21,-14 8,-3 16,-4 23,-4 13,0 24,4 33,12 10,8 15,20 15,36l0 468 -99 0 0 -345 -306 337c-10,10 -22,15 -36,15 -14,0 -26,-5 -35,-15l-306 -337 0 345 -99 0z"/>
     <polygon class="fil1" points="4126,966 4126,557 3865,557 3865,457 4487,457 4487,557 4225,557 4225,966 "/>
     <polygon class="fil1" points="4541,966 4541,457 5162,457 5162,557 4640,557 4640,624 5067,624 5067,717 4640,717 4640,866 5163,866 5163,966 "/>
     <path class="fil1" d="M5402 966c-31,0 -57,-3 -78,-9 -21,-6 -38,-14 -51,-26 -13,-12 -23,-26 -29,-44 -6,-17 -9,-37 -9,-59l0 -233c0,-22 3,-42 9,-59 6,-18 16,-32 29,-44 13,-12 30,-20 51,-26 21,-6 47,-9 78,-9l454 0 0 100 -455 0c-22,0 -38,3 -48,10 -11,7 -16,18 -16,32l0 225c0,14 5,25 16,32 10,7 26,10 48,10l457 0 0 100 -456 0z"/>
    </g>
    <g>
     <g>
      <path class="fil0" d="M622 1352c13,13 34,13 47,0l142 -144c13,-13 13,-34 0,-47l-142 -143c-13,-13 -34,-13 -47,0l-142 143c-13,13 -13,34 0,47l142 144z"/>
      <path class="fil0" d="M387 1114c13,13 34,13 47,0l142 -144c12,-13 12,-34 0,-47l-142 -143c-13,-13 -34,-13 -47,0l-142 143c-13,13 -13,34 0,47l142 144z"/>
      <path class="fil0" d="M152 876c13,13 33,13 46,0l142 -143c13,-13 13,-34 0,-47l-142 -144c-13,-13 -33,-13 -46,0l-142 144c-13,13 -13,34 0,47l142 143z"/>
      <path class="fil0" d="M855 1116c13,13 34,13 47,0l142 -143c13,-13 13,-34 0,-47l-142 -144c-13,-13 -34,-13 -47,0l-142 144c-13,13 -13,34 0,47l142 143z"/>
      <path class="fil0" d="M385 641c13,13 33,13 46,0l142 -144c13,-13 13,-34 0,-47l-142 -143c-13,-13 -33,-13 -46,0l-142 143c-13,13 -13,34 0,47l142 144z"/>
     </g>
     <g>
      <path class="fil1" d="M620 879c13,12 34,12 46,0l143 -144c12,-13 12,-34 0,-47l-143 -144c-12,-12 -33,-12 -46,0l-142 144c-13,13 -13,34 0,47l142 144z"/>
      <path class="fil1" d="M1088 881c13,13 34,13 47,0l142 -144c13,-13 13,-34 0,-47l-142 -143c-13,-13 -34,-13 -47,0l-142 143c-13,13 -13,34 0,47l142 144z"/>
      <path class="fil1" d="M853 643c13,13 34,13 46,0l143 -143c12,-13 12,-34 0,-47l-143 -144c-12,-13 -33,-13 -46,0l-142 144c-13,13 -13,34 0,47l142 143z"/>
      <path class="fil1" d="M618 405c12,13 33,13 46,0l142 -143c13,-13 13,-34 0,-47l-142 -144c-13,-13 -34,-13 -46,0l-142 144c-13,13 -13,34 0,47l142 143z"/>
     </g>
    </g>
   </g>
   <g>
    <g>
     <path class="fil2" d="M1683 905c-31,0 -56,-3 -77,-9 -21,-6 -38,-15 -51,-27 -13,-12 -22,-26 -28,-43 -6,-18 -9,-37 -9,-60l0 -232c0,-23 3,-43 9,-60 6,-17 15,-32 28,-44 13,-11 30,-20 51,-26 21,-6 46,-9 77,-9l448 0 0 100 -449 0c-22,0 -38,3 -48,11 -10,7 -15,17 -15,32l0 224c0,14 5,25 15,32 10,7 26,11 48,11l450 0 0 100 -449 0z"/>
     <polygon class="fil2" points="2206,905 2206,395 2304,395 2304,805 2651,805 2651,905 "/>
     <polygon class="fil2" points="2717,905 2717,395 2815,395 2815,905 "/>
     <path class="fil2" d="M2910 905l0 -469c0,-16 4,-28 14,-36 9,-8 20,-12 32,-12 8,0 15,1 23,4 8,3 15,8 21,15l344 384 345 -384c6,-7 12,-12 20,-15 8,-3 16,-4 23,-4 13,0 23,4 33,12 9,8 14,20 14,36l0 469 -98 0 0 -346 -302 337c-9,11 -21,16 -35,16 -14,0 -25,-5 -35,-16l-302 -337 0 346 -97 0z"/>
     <polygon class="fil3" points="4088,905 4088,495 3830,495 3830,395 4444,395 4444,495 4185,495 4185,905 "/>
     <polygon class="fil3" points="4497,905 4497,395 5109,395 5109,495 4595,495 4595,562 5016,562 5016,655 4595,655 4595,805 5111,805 5111,905 "/>
     <path class="fil3" d="M5347 905c-31,0 -57,-3 -77,-9 -21,-6 -38,-15 -51,-27 -13,-12 -22,-26 -28,-43 -6,-18 -9,-37 -9,-60l0 -232c0,-23 3,-43 9,-60 6,-17 15,-32 28,-44 13,-11 30,-20 51,-26 20,-6 46,-9 77,-9l448 0 0 100 -449 0c-22,0 -38,3 -48,11 -10,7 -15,17 -15,32l0 224c0,14 5,25 15,32 10,7 26,11 48,11l450 0 0 100 -449 0z"/>
    </g>
    <g>
     <g>
      <path class="fil2" d="M630 1290c12,13 33,13 45,0l141 -144c12,-13 12,-34 0,-47l-141 -143c-12,-13 -33,-13 -45,0l-141 143c-12,13 -12,34 0,47l141 144z"/>
      <path class="fil2" d="M397 1052c13,13 34,13 46,0l140 -143c13,-13 13,-34 0,-47l-140 -144c-12,-13 -33,-13 -46,0l-140 144c-13,13 -13,34 0,47l140 143z"/>
      <path class="fil2" d="M165 814c13,13 33,13 46,0l140 -143c13,-13 13,-34 0,-47l-140 -144c-13,-13 -33,-13 -46,0l-140 144c-13,13 -13,34 0,47l140 143z"/>
      <path class="fil2" d="M859 1055c13,13 34,13 46,0l141 -144c12,-13 12,-34 0,-47l-141 -143c-12,-13 -33,-13 -46,0l-140 143c-12,13 -12,34 0,47l140 144z"/>
      <path class="fil2" d="M395 579c13,13 33,13 46,0l140 -143c13,-13 13,-34 0,-47l-140 -144c-13,-13 -33,-13 -46,0l-140 144c-13,13 -13,34 0,47l140 143z"/>
     </g>
     <g>
      <path class="fil3" d="M627 817c13,13 33,13 46,0l140 -144c13,-13 13,-34 0,-47l-140 -143c-13,-13 -33,-13 -46,0l-140 143c-13,13 -13,34 0,47l140 144z"/>
      <path class="fil3" d="M1089 819c13,13 34,13 46,0l141 -143c12,-13 12,-34 0,-47l-141 -144c-12,-13 -33,-13 -46,0l-140 144c-13,13 -13,34 0,47l140 143z"/>
      <path class="fil3" d="M857 582c13,12 33,12 46,0l140 -144c13,-13 13,-34 0,-47l-140 -144c-13,-13 -33,-13 -46,0l-140 144c-13,13 -13,34 0,47l140 144z"/>
      <path class="fil3" d="M625 344c13,13 33,13 46,0l140 -144c13,-13 13,-34 0,-47l-140 -143c-13,-13 -33,-13 -46,0l-140 143c-13,13 -13,34 0,47l140 144z"/>
     </g>
    </g>
   </g>
  </g>
 </g>
</svg>
